# xmcd
#
# Track frame offsets: 
#        150
#        24060
#        37825
#        56020
#        81244
#        96574
#        120605
#        136202
#        167118
#        186372
#        198170
#        212679
#        230799
#        265065
#        277470
#        290912
#        305363
#        318667
#
# Disc length: 4418 seconds
#
# Revision: 0
# Processed by: cddbd v1.5.2PL0 Copyright (c) Steve Scherf et al.
# Submitted via: ExactAudioCopy v1.0b4
#
DISCID=12114012
DTITLE=Elvin Bishop - The Best Of Elvin Bishop: Tulsa Shuffle
DYEAR=1994
DGENRE=Blues Rock
TTITLE0=Tulsa Shuffle
TTITLE1=How Much More
TTITLE2=The Things That I Used To Do
TTITLE3=Sweet Potato
TTITLE4=Honey Bee
TTITLE5=Prisoner Of Love
TTITLE6=Party Till The Cows Come Home
TTITLE7=Hogbottom
TTITLE8=Be With Me
TTITLE9=So Fine
TTITLE10=Don't Fight It (Feel It)
TTITLE11=As The Years Go Passing By
TTITLE12=So Good
TTITLE13=Rock My Soul
TTITLE14=Rockbottom
TTITLE15=Stomp
TTITLE16=Stealin' Watermelons
TTITLE17=Last Mile
EXTD=
EXTT0=
EXTT1=
EXTT2=
EXTT3=
EXTT4=
EXTT5=
EXTT6=
EXTT7=
EXTT8=
EXTT9=
EXTT10=
EXTT11=
EXTT12=
EXTT13=
EXTT14=
EXTT15=
EXTT16=
EXTT17=
PLAYORDER=
